<svg xmlns="http://www.w3.org/2000/svg" xmlns:xlink="http://www.w3.org/1999/xlink" width="1000" zoomAndPan="magnify" viewBox="0 0 750 225" height="300" preserveAspectRatio="xMidYMid meet" version="1.0"><defs><g><g id="id1"/></g></defs><g fill="rgb(0%, 0%, 0%)" fill-opacity="1"><g transform="translate(0.110587, 147.887796)"><g><path d="M 61.984375 -22.03125 C 61.628906 -22.03125 61.269531 -21.632812 60.90625 -20.84375 C 59.601562 -17.875 58.191406 -15.101562 56.671875 -12.53125 C 55.148438 -9.96875 53.410156 -7.742188 51.453125 -5.859375 C 49.503906 -3.984375 47.332031 -2.519531 44.9375 -1.46875 C 42.550781 -0.414062 39.910156 0.109375 37.015625 0.109375 C 30.429688 0.109375 25.546875 -2.457031 22.359375 -7.59375 C 19.179688 -12.738281 17.59375 -20.269531 17.59375 -30.1875 L 17.59375 -42.34375 C 17.59375 -51.894531 19.21875 -59.253906 22.46875 -64.421875 C 25.726562 -69.597656 30.757812 -72.1875 37.5625 -72.1875 C 40.382812 -72.1875 42.953125 -71.734375 45.265625 -70.828125 C 47.585938 -69.929688 49.6875 -68.6875 51.5625 -67.09375 C 53.445312 -65.5 55.078125 -63.578125 56.453125 -61.328125 C 57.828125 -59.085938 58.945312 -56.664062 59.8125 -54.0625 C 60.03125 -53.34375 60.285156 -52.984375 60.578125 -52.984375 C 60.941406 -52.984375 61.125 -53.414062 61.125 -54.28125 L 61.125 -71.984375 C 61.125 -72.628906 61.050781 -73.0625 60.90625 -73.28125 C 60.757812 -73.5 60.539062 -73.609375 60.25 -73.609375 C 59.882812 -73.609375 59.414062 -73.316406 58.84375 -72.734375 L 54.609375 -68.390625 C 52.296875 -70.273438 49.691406 -71.703125 46.796875 -72.671875 C 43.898438 -73.648438 40.820312 -74.140625 37.5625 -74.140625 C 32.78125 -74.140625 28.34375 -73.054688 24.25 -70.890625 C 20.164062 -68.722656 16.625 -65.863281 13.625 -62.3125 C 10.625 -58.769531 8.289062 -54.734375 6.625 -50.203125 C 4.957031 -45.679688 4.125 -41.109375 4.125 -36.484375 C 4.125 -31.117188 5.082031 -26.101562 7 -21.4375 C 8.914062 -16.769531 11.429688 -12.695312 14.546875 -9.21875 C 17.660156 -5.75 21.171875 -3 25.078125 -0.96875 C 28.984375 1.050781 32.960938 2.0625 37.015625 2.0625 C 40.421875 2.0625 43.675781 1.390625 46.78125 0.046875 C 49.894531 -1.285156 52.6875 -3.328125 55.15625 -6.078125 L 60.90625 0.21875 C 61.269531 0.582031 61.59375 0.765625 61.875 0.765625 C 62.3125 0.765625 62.53125 0.507812 62.53125 0 L 62.53125 -20.953125 C 62.53125 -21.671875 62.347656 -22.03125 61.984375 -22.03125 Z M 61.984375 -22.03125 "/></g></g></g><g fill="rgb(0%, 0%, 0%)" fill-opacity="1"><g transform="translate(66.646122, 147.887796)"><g><path d="M 3.6875 -2.828125 L 3.6875 0 L 52.4375 0 L 52.4375 -21.828125 L 50.703125 -21.828125 C 50.554688 -18.128906 50.082031 -14.992188 49.28125 -12.421875 C 48.488281 -9.859375 47.40625 -7.796875 46.03125 -6.234375 C 44.65625 -4.679688 43.007812 -3.539062 41.09375 -2.8125 C 39.175781 -2.09375 36.984375 -1.734375 34.515625 -1.734375 L 13.78125 -1.734375 L 51.671875 -70.34375 L 51.671875 -72.953125 L 4.234375 -72.953125 L 4.234375 -54.0625 L 5.75 -54.0625 C 5.820312 -57.394531 6.273438 -60.164062 7.109375 -62.375 C 7.941406 -64.582031 9.023438 -66.335938 10.359375 -67.640625 C 11.703125 -68.941406 13.207031 -69.863281 14.875 -70.40625 C 16.539062 -70.945312 18.3125 -71.21875 20.1875 -71.21875 L 41.140625 -71.21875 Z M 3.6875 -2.828125 "/></g></g></g><g fill="rgb(0%, 0%, 0%)" fill-opacity="1"><g transform="translate(121.89343, 147.887796)"><g><path d="M 2.390625 -1.734375 L 2.390625 0 L 26.484375 0 L 26.484375 -1.734375 L 13.671875 -1.734375 L 20.515625 -22.6875 L 42.34375 -22.6875 L 49.390625 -1.734375 L 38.21875 -1.734375 L 38.21875 0 L 70.015625 0 L 70.015625 -1.734375 L 60.578125 -1.734375 L 36.796875 -73.9375 L 35.5 -73.9375 L 11.71875 -1.734375 Z M 31.375 -55.46875 L 41.796875 -24.421875 L 21.171875 -24.421875 Z M 31.375 -55.46875 "/></g></g></g><g fill="rgb(0%, 0%, 0%)" fill-opacity="1"><g transform="translate(193.638911, 147.887796)"><g><path d="M 57.328125 -4.671875 C 57.109375 -5.390625 56.941406 -6.398438 56.828125 -7.703125 C 56.722656 -9.003906 56.648438 -10.414062 56.609375 -11.9375 C 56.578125 -13.457031 56.539062 -15.015625 56.5 -16.609375 C 56.46875 -18.203125 56.34375 -19.722656 56.125 -21.171875 C 55.6875 -24.066406 54.960938 -26.453125 53.953125 -28.328125 C 52.941406 -30.210938 51.710938 -31.75 50.265625 -32.9375 C 48.816406 -34.132812 47.148438 -35.078125 45.265625 -35.765625 C 43.390625 -36.453125 41.363281 -37.085938 39.1875 -37.671875 C 44.832031 -38.679688 49.175781 -40.6875 52.21875 -43.6875 C 55.257812 -46.695312 56.78125 -50.484375 56.78125 -55.046875 C 56.78125 -57.867188 56.179688 -60.398438 54.984375 -62.640625 C 53.796875 -64.878906 52.1875 -66.757812 50.15625 -68.28125 C 48.125 -69.800781 45.710938 -70.957031 42.921875 -71.75 C 40.140625 -72.550781 37.195312 -72.953125 34.09375 -72.953125 L 3.46875 -72.953125 L 3.46875 -71.21875 L 12.8125 -71.21875 L 12.8125 -1.734375 L 3.46875 -1.734375 L 3.46875 0 L 32.671875 0 L 32.671875 -1.734375 L 23.34375 -1.734375 L 23.34375 -37.234375 L 32.359375 -37.234375 C 33.515625 -37.234375 34.742188 -37.035156 36.046875 -36.640625 C 37.347656 -36.242188 38.554688 -35.484375 39.671875 -34.359375 C 40.796875 -33.234375 41.773438 -31.675781 42.609375 -29.6875 C 43.441406 -27.695312 44.039062 -25.144531 44.40625 -22.03125 C 44.625 -20.15625 44.75 -18.238281 44.78125 -16.28125 C 44.820312 -14.332031 44.929688 -12.453125 45.109375 -10.640625 C 45.285156 -8.828125 45.609375 -7.160156 46.078125 -5.640625 C 46.554688 -4.117188 47.300781 -2.816406 48.3125 -1.734375 C 49.25 -0.722656 50.347656 -0.0351562 51.609375 0.328125 C 52.878906 0.691406 54.238281 0.875 55.6875 0.875 C 56.914062 0.875 58.144531 0.742188 59.375 0.484375 C 60.613281 0.234375 61.753906 -0.0703125 62.796875 -0.4375 C 63.847656 -0.800781 64.753906 -1.179688 65.515625 -1.578125 C 66.273438 -1.972656 66.835938 -2.351562 67.203125 -2.71875 C 67.421875 -2.9375 67.53125 -3.148438 67.53125 -3.359375 C 67.53125 -3.578125 67.421875 -3.6875 67.203125 -3.6875 C 67.054688 -3.6875 66.835938 -3.613281 66.546875 -3.46875 C 65.097656 -2.457031 63.46875 -1.953125 61.65625 -1.953125 C 59.414062 -1.953125 57.972656 -2.859375 57.328125 -4.671875 Z M 23.34375 -38.96875 L 23.34375 -71.21875 L 34.09375 -71.21875 C 42.34375 -71.21875 46.46875 -66.476562 46.46875 -57 L 46.46875 -53.09375 C 46.46875 -43.675781 42.34375 -38.96875 34.09375 -38.96875 Z M 23.34375 -38.96875 "/></g></g></g><g fill="rgb(0%, 0%, 0%)" fill-opacity="1"><g transform="translate(261.802579, 147.887796)"><g><path d="M 33.875 -71.21875 L 33.875 -72.953125 L 4.671875 -72.953125 L 4.671875 -71.21875 L 14 -71.21875 L 14 -1.734375 L 4.671875 -1.734375 L 4.671875 0 L 33.875 0 L 33.875 -1.734375 L 24.53125 -1.734375 L 24.53125 -71.21875 Z M 33.875 -71.21875 "/></g></g></g><g fill="rgb(0%, 0%, 0%)" fill-opacity="1"><g transform="translate(300.334588, 147.887796)"><g><path d="M 2.9375 -1.734375 L 2.9375 0 L 23.34375 0 L 23.34375 -1.734375 L 14 -1.734375 L 14 -68.0625 L 56.015625 0.875 L 59.703125 0.875 L 59.703125 -71.21875 L 69.046875 -71.21875 L 69.046875 -72.953125 L 48.640625 -72.953125 L 48.640625 -71.21875 L 57.96875 -71.21875 L 57.96875 -17.90625 L 24.3125 -72.953125 L 2.9375 -72.953125 L 2.9375 -71.21875 L 12.265625 -71.21875 L 12.265625 -1.734375 Z M 2.9375 -1.734375 "/></g></g></g><g fill="rgb(0%, 0%, 0%)" fill-opacity="1"><g transform="translate(371.645932, 147.887796)"><g><path d="M 2.390625 -1.734375 L 2.390625 0 L 26.484375 0 L 26.484375 -1.734375 L 13.671875 -1.734375 L 20.515625 -22.6875 L 42.34375 -22.6875 L 49.390625 -1.734375 L 38.21875 -1.734375 L 38.21875 0 L 70.015625 0 L 70.015625 -1.734375 L 60.578125 -1.734375 L 36.796875 -73.9375 L 35.5 -73.9375 L 11.71875 -1.734375 Z M 31.375 -55.46875 L 41.796875 -24.421875 L 21.171875 -24.421875 Z M 31.375 -55.46875 "/></g></g></g><g fill="rgb(0%, 0%, 0%)" fill-opacity="1"><g transform="translate(443.391413, 147.887796)"><g/></g></g><g fill="rgb(0%, 0%, 0%)" fill-opacity="1"><g transform="translate(472.588878, 147.887796)"><g><path d="M 60.25 -20.078125 C 59.675781 -17.328125 59.0625 -14.832031 58.40625 -12.59375 C 57.75 -10.351562 56.878906 -8.414062 55.796875 -6.78125 C 54.710938 -5.15625 53.335938 -3.90625 51.671875 -3.03125 C 50.003906 -2.164062 47.90625 -1.734375 45.375 -1.734375 L 23.125 -1.734375 L 23.125 -71.21875 L 33.4375 -71.21875 L 33.4375 -72.953125 L 3.25 -72.953125 L 3.25 -71.21875 L 12.59375 -71.21875 L 12.59375 -1.734375 L 3.25 -1.734375 L 3.25 0 L 59.171875 0 C 61.265625 0 62.3125 -1.15625 62.3125 -3.46875 L 62.3125 -19.765625 C 62.3125 -21.492188 62.023438 -22.359375 61.453125 -22.359375 C 60.941406 -22.359375 60.539062 -21.597656 60.25 -20.078125 Z M 60.25 -20.078125 "/></g></g></g><g fill="rgb(0%, 0%, 0%)" fill-opacity="1"><g transform="translate(537.604872, 147.887796)"><g><path d="M 31.59375 -72.953125 L 2.390625 -72.953125 L 2.390625 -71.21875 L 11.71875 -71.21875 L 11.71875 -18.125 C 11.71875 -14.289062 12.457031 -11.085938 13.9375 -8.515625 C 15.425781 -5.953125 17.347656 -3.875 19.703125 -2.28125 C 22.054688 -0.6875 24.679688 0.429688 27.578125 1.078125 C 30.472656 1.734375 33.332031 2.0625 36.15625 2.0625 C 43.03125 2.0625 48.382812 0.378906 52.21875 -2.984375 C 56.050781 -6.347656 57.96875 -11.394531 57.96875 -18.125 L 57.96875 -71.21875 L 67.3125 -71.21875 L 67.3125 -72.953125 L 46.90625 -72.953125 L 46.90625 -71.21875 L 56.234375 -71.21875 L 56.234375 -18.125 C 56.234375 -15.226562 55.78125 -12.640625 54.875 -10.359375 C 53.96875 -8.085938 52.71875 -6.171875 51.125 -4.609375 C 49.539062 -3.054688 47.679688 -1.878906 45.546875 -1.078125 C 43.410156 -0.285156 41.109375 0.109375 38.640625 0.109375 C 33.578125 0.109375 29.578125 -1.460938 26.640625 -4.609375 C 23.710938 -7.765625 22.25 -12.269531 22.25 -18.125 L 22.25 -71.21875 L 31.59375 -71.21875 Z M 31.59375 -72.953125 "/></g></g></g><g fill="rgb(0%, 0%, 0%)" fill-opacity="1"><g transform="translate(606.853943, 147.887796)"><g><path d="M 2.9375 -1.734375 L 2.9375 0 L 23.34375 0 L 23.34375 -1.734375 L 14 -1.734375 L 14 -68.0625 L 56.015625 0.875 L 59.703125 0.875 L 59.703125 -71.21875 L 69.046875 -71.21875 L 69.046875 -72.953125 L 48.640625 -72.953125 L 48.640625 -71.21875 L 57.96875 -71.21875 L 57.96875 -17.90625 L 24.3125 -72.953125 L 2.9375 -72.953125 L 2.9375 -71.21875 L 12.265625 -71.21875 L 12.265625 -1.734375 Z M 2.9375 -1.734375 "/></g></g></g><g fill="rgb(0%, 0%, 0%)" fill-opacity="1"><g transform="translate(678.165287, 147.887796)"><g><path d="M 2.390625 -1.734375 L 2.390625 0 L 26.484375 0 L 26.484375 -1.734375 L 13.671875 -1.734375 L 20.515625 -22.6875 L 42.34375 -22.6875 L 49.390625 -1.734375 L 38.21875 -1.734375 L 38.21875 0 L 70.015625 0 L 70.015625 -1.734375 L 60.578125 -1.734375 L 36.796875 -73.9375 L 35.5 -73.9375 L 11.71875 -1.734375 Z M 31.375 -55.46875 L 41.796875 -24.421875 L 21.171875 -24.421875 Z M 31.375 -55.46875 "/></g></g></g></svg>