<svg xmlns="http://www.w3.org/2000/svg" xmlns:xlink="http://www.w3.org/1999/xlink" width="330" zoomAndPan="magnify" viewBox="0 0 247.5 82.499998" height="110" preserveAspectRatio="xMidYMid meet" version="1.0"><defs><g><g id="id1"/><g id="id2"/></g></defs><g fill="rgb(0%, 0%, 0%)" fill-opacity="1"><g transform="translate(0.580529, 66.916863)"><g><path d="M 44.234375 -15.71875 C 43.972656 -15.71875 43.710938 -15.4375 43.453125 -14.875 C 42.523438 -12.757812 41.519531 -10.785156 40.4375 -8.953125 C 39.351562 -7.117188 38.113281 -5.53125 36.71875 -4.1875 C 35.320312 -2.84375 33.769531 -1.796875 32.0625 -1.046875 C 30.363281 -0.296875 28.484375 0.078125 26.421875 0.078125 C 21.710938 0.078125 18.222656 -1.753906 15.953125 -5.421875 C 13.679688 -9.085938 12.546875 -14.457031 12.546875 -21.53125 L 12.546875 -30.21875 C 12.546875 -37.03125 13.707031 -42.28125 16.03125 -45.96875 C 18.351562 -49.664062 21.941406 -51.515625 26.796875 -51.515625 C 28.816406 -51.515625 30.648438 -51.191406 32.296875 -50.546875 C 33.953125 -49.898438 35.453125 -49.007812 36.796875 -47.875 C 38.140625 -46.738281 39.300781 -45.367188 40.28125 -43.765625 C 41.257812 -42.171875 42.0625 -40.441406 42.6875 -38.578125 C 42.84375 -38.066406 43.023438 -37.8125 43.234375 -37.8125 C 43.484375 -37.8125 43.609375 -38.117188 43.609375 -38.734375 L 43.609375 -51.359375 C 43.609375 -51.828125 43.554688 -52.140625 43.453125 -52.296875 C 43.359375 -52.453125 43.207031 -52.53125 43 -52.53125 C 42.738281 -52.53125 42.398438 -52.320312 41.984375 -51.90625 L 38.96875 -48.8125 C 37.3125 -50.144531 35.453125 -51.160156 33.390625 -51.859375 C 31.328125 -52.554688 29.128906 -52.90625 26.796875 -52.90625 C 23.390625 -52.90625 20.226562 -52.128906 17.3125 -50.578125 C 14.394531 -49.035156 11.863281 -47 9.71875 -44.46875 C 7.570312 -41.9375 5.90625 -39.054688 4.71875 -35.828125 C 3.53125 -32.597656 2.9375 -29.332031 2.9375 -26.03125 C 2.9375 -22.207031 3.617188 -18.628906 4.984375 -15.296875 C 6.359375 -11.960938 8.15625 -9.054688 10.375 -6.578125 C 12.601562 -4.097656 15.109375 -2.132812 17.890625 -0.6875 C 20.679688 0.75 23.523438 1.46875 26.421875 1.46875 C 28.847656 1.46875 31.171875 0.988281 33.390625 0.03125 C 35.609375 -0.914062 37.597656 -2.375 39.359375 -4.34375 L 43.453125 0.15625 C 43.710938 0.414062 43.945312 0.546875 44.15625 0.546875 C 44.46875 0.546875 44.625 0.363281 44.625 0 L 44.625 -14.953125 C 44.625 -15.460938 44.492188 -15.71875 44.234375 -15.71875 Z M 44.234375 -15.71875 "/></g></g></g><g fill="rgb(0%, 0%, 0%)" fill-opacity="1"><g transform="translate(48.063992, 66.916863)"><g><path d="M 43 -14.328125 C 42.582031 -12.367188 42.140625 -10.585938 41.671875 -8.984375 C 41.210938 -7.378906 40.59375 -5.992188 39.8125 -4.828125 C 39.039062 -3.671875 38.0625 -2.78125 36.875 -2.15625 C 35.6875 -1.539062 34.1875 -1.234375 32.375 -1.234375 L 16.5 -1.234375 L 16.5 -50.8125 L 23.859375 -50.8125 L 23.859375 -52.0625 L 2.328125 -52.0625 L 2.328125 -50.8125 L 8.984375 -50.8125 L 8.984375 -1.234375 L 2.328125 -1.234375 L 2.328125 0 L 42.21875 0 C 43.71875 0 44.46875 -0.828125 44.46875 -2.484375 L 44.46875 -14.09375 C 44.46875 -15.332031 44.257812 -15.953125 43.84375 -15.953125 C 43.488281 -15.953125 43.207031 -15.410156 43 -14.328125 Z M 43 -14.328125 "/></g></g></g><g fill="rgb(0%, 0%, 0%)" fill-opacity="1"><g transform="translate(110.497458, 47.420905)"><g><path d="M 11.09375 -3.953125 C 11.03125 -3.953125 10.96875 -3.878906 10.90625 -3.734375 C 10.664062 -3.203125 10.410156 -2.707031 10.140625 -2.25 C 9.867188 -1.789062 9.554688 -1.390625 9.203125 -1.046875 C 8.859375 -0.710938 8.472656 -0.453125 8.046875 -0.265625 C 7.617188 -0.078125 7.144531 0.015625 6.625 0.015625 C 5.445312 0.015625 4.570312 -0.441406 4 -1.359375 C 3.4375 -2.273438 3.15625 -3.625 3.15625 -5.40625 L 3.15625 -7.578125 C 3.15625 -9.285156 3.441406 -10.601562 4.015625 -11.53125 C 4.597656 -12.457031 5.5 -12.921875 6.71875 -12.921875 C 7.226562 -12.921875 7.691406 -12.835938 8.109375 -12.671875 C 8.523438 -12.515625 8.898438 -12.289062 9.234375 -12 C 9.566406 -11.71875 9.859375 -11.375 10.109375 -10.96875 C 10.359375 -10.570312 10.554688 -10.144531 10.703125 -9.6875 C 10.742188 -9.550781 10.789062 -9.484375 10.84375 -9.484375 C 10.90625 -9.484375 10.9375 -9.5625 10.9375 -9.71875 L 10.9375 -12.890625 C 10.9375 -13.003906 10.921875 -13.078125 10.890625 -13.109375 C 10.867188 -13.148438 10.832031 -13.171875 10.78125 -13.171875 C 10.71875 -13.171875 10.632812 -13.117188 10.53125 -13.015625 L 9.78125 -12.25 C 9.363281 -12.582031 8.894531 -12.835938 8.375 -13.015625 C 7.851562 -13.191406 7.300781 -13.28125 6.71875 -13.28125 C 5.863281 -13.28125 5.070312 -13.082031 4.34375 -12.6875 C 3.613281 -12.300781 2.976562 -11.789062 2.4375 -11.15625 C 1.894531 -10.519531 1.472656 -9.796875 1.171875 -8.984375 C 0.878906 -8.179688 0.734375 -7.363281 0.734375 -6.53125 C 0.734375 -5.570312 0.90625 -4.671875 1.25 -3.828125 C 1.59375 -2.992188 2.039062 -2.265625 2.59375 -1.640625 C 3.15625 -1.023438 3.785156 -0.535156 4.484375 -0.171875 C 5.191406 0.191406 5.90625 0.375 6.625 0.375 C 7.238281 0.375 7.820312 0.253906 8.375 0.015625 C 8.9375 -0.222656 9.4375 -0.59375 9.875 -1.09375 L 10.90625 0.03125 C 10.96875 0.101562 11.023438 0.140625 11.078125 0.140625 C 11.160156 0.140625 11.203125 0.09375 11.203125 0 L 11.203125 -3.75 C 11.203125 -3.882812 11.164062 -3.953125 11.09375 -3.953125 Z M 11.09375 -3.953125 "/></g></g></g><g fill="rgb(0%, 0%, 0%)" fill-opacity="1"><g transform="translate(122.411378, 47.420905)"><g><path d="M 0.65625 -0.5 L 0.65625 0 L 9.390625 0 L 9.390625 -3.90625 L 9.078125 -3.90625 C 9.046875 -3.25 8.957031 -2.6875 8.8125 -2.21875 C 8.675781 -1.757812 8.484375 -1.390625 8.234375 -1.109375 C 7.992188 -0.835938 7.703125 -0.632812 7.359375 -0.5 C 7.015625 -0.375 6.625 -0.3125 6.1875 -0.3125 L 2.46875 -0.3125 L 9.25 -12.59375 L 9.25 -13.0625 L 0.765625 -13.0625 L 0.765625 -9.6875 L 1.03125 -9.6875 C 1.039062 -10.28125 1.117188 -10.773438 1.265625 -11.171875 C 1.421875 -11.566406 1.617188 -11.878906 1.859375 -12.109375 C 2.097656 -12.335938 2.363281 -12.5 2.65625 -12.59375 C 2.957031 -12.695312 3.273438 -12.75 3.609375 -12.75 L 7.359375 -12.75 Z M 0.65625 -0.5 "/></g></g></g><g fill="rgb(0%, 0%, 0%)" fill-opacity="1"><g transform="translate(132.304018, 47.420905)"><g><path d="M 0.421875 -0.3125 L 0.421875 0 L 4.75 0 L 4.75 -0.3125 L 2.453125 -0.3125 L 3.671875 -4.0625 L 7.578125 -4.0625 L 8.84375 -0.3125 L 6.84375 -0.3125 L 6.84375 0 L 12.53125 0 L 12.53125 -0.3125 L 10.84375 -0.3125 L 6.59375 -13.234375 L 6.359375 -13.234375 L 2.09375 -0.3125 Z M 5.625 -9.9375 L 7.484375 -4.375 L 3.796875 -4.375 Z M 5.625 -9.9375 "/></g></g></g><g fill="rgb(0%, 0%, 0%)" fill-opacity="1"><g transform="translate(145.150837, 47.420905)"><g><path d="M 10.265625 -0.828125 C 10.222656 -0.960938 10.191406 -1.144531 10.171875 -1.375 C 10.148438 -1.613281 10.132812 -1.867188 10.125 -2.140625 C 10.125 -2.410156 10.117188 -2.6875 10.109375 -2.96875 C 10.109375 -3.257812 10.085938 -3.535156 10.046875 -3.796875 C 9.972656 -4.304688 9.84375 -4.726562 9.65625 -5.0625 C 9.476562 -5.40625 9.257812 -5.679688 9 -5.890625 C 8.738281 -6.109375 8.4375 -6.28125 8.09375 -6.40625 C 7.757812 -6.53125 7.398438 -6.644531 7.015625 -6.75 C 8.023438 -6.925781 8.800781 -7.28125 9.34375 -7.8125 C 9.894531 -8.351562 10.171875 -9.035156 10.171875 -9.859375 C 10.171875 -10.359375 10.0625 -10.804688 9.84375 -11.203125 C 9.632812 -11.609375 9.347656 -11.945312 8.984375 -12.21875 C 8.617188 -12.5 8.1875 -12.707031 7.6875 -12.84375 C 7.1875 -12.988281 6.660156 -13.0625 6.109375 -13.0625 L 0.625 -13.0625 L 0.625 -12.75 L 2.296875 -12.75 L 2.296875 -0.3125 L 0.625 -0.3125 L 0.625 0 L 5.84375 0 L 5.84375 -0.3125 L 4.171875 -0.3125 L 4.171875 -6.671875 L 5.796875 -6.671875 C 6.003906 -6.671875 6.222656 -6.632812 6.453125 -6.5625 C 6.679688 -6.488281 6.894531 -6.347656 7.09375 -6.140625 C 7.300781 -5.941406 7.476562 -5.664062 7.625 -5.3125 C 7.78125 -4.957031 7.890625 -4.503906 7.953125 -3.953125 C 7.992188 -3.609375 8.015625 -3.257812 8.015625 -2.90625 C 8.023438 -2.5625 8.046875 -2.226562 8.078125 -1.90625 C 8.109375 -1.582031 8.164062 -1.285156 8.25 -1.015625 C 8.332031 -0.742188 8.46875 -0.507812 8.65625 -0.3125 C 8.820312 -0.125 9.015625 0 9.234375 0.0625 C 9.460938 0.125 9.707031 0.15625 9.96875 0.15625 C 10.1875 0.15625 10.40625 0.128906 10.625 0.078125 C 10.851562 0.0351562 11.0625 -0.015625 11.25 -0.078125 C 11.4375 -0.140625 11.597656 -0.207031 11.734375 -0.28125 C 11.867188 -0.351562 11.96875 -0.421875 12.03125 -0.484375 C 12.070312 -0.523438 12.09375 -0.566406 12.09375 -0.609375 C 12.09375 -0.640625 12.070312 -0.65625 12.03125 -0.65625 C 12.007812 -0.65625 11.972656 -0.644531 11.921875 -0.625 C 11.660156 -0.4375 11.367188 -0.34375 11.046875 -0.34375 C 10.640625 -0.34375 10.378906 -0.503906 10.265625 -0.828125 Z M 4.171875 -6.984375 L 4.171875 -12.75 L 6.109375 -12.75 C 7.578125 -12.75 8.3125 -11.898438 8.3125 -10.203125 L 8.3125 -9.5 C 8.3125 -7.820312 7.578125 -6.984375 6.109375 -6.984375 Z M 4.171875 -6.984375 "/></g></g></g><g fill="rgb(0%, 0%, 0%)" fill-opacity="1"><g transform="translate(157.356293, 47.420905)"><g><path d="M 6.0625 -12.75 L 6.0625 -13.0625 L 0.828125 -13.0625 L 0.828125 -12.75 L 2.5 -12.75 L 2.5 -0.3125 L 0.828125 -0.3125 L 0.828125 0 L 6.0625 0 L 6.0625 -0.3125 L 4.390625 -0.3125 L 4.390625 -12.75 Z M 6.0625 -12.75 "/></g></g></g><g fill="rgb(0%, 0%, 0%)" fill-opacity="1"><g transform="translate(164.255873, 47.420905)"><g><path d="M 0.53125 -0.3125 L 0.53125 0 L 4.171875 0 L 4.171875 -0.3125 L 2.5 -0.3125 L 2.5 -12.1875 L 10.03125 0.15625 L 10.6875 0.15625 L 10.6875 -12.75 L 12.359375 -12.75 L 12.359375 -13.0625 L 8.703125 -13.0625 L 8.703125 -12.75 L 10.375 -12.75 L 10.375 -3.203125 L 4.359375 -13.0625 L 0.53125 -13.0625 L 0.53125 -12.75 L 2.203125 -12.75 L 2.203125 -0.3125 Z M 0.53125 -0.3125 "/></g></g></g><g fill="rgb(0%, 0%, 0%)" fill-opacity="1"><g transform="translate(177.024955, 47.420905)"><g><path d="M 0.421875 -0.3125 L 0.421875 0 L 4.75 0 L 4.75 -0.3125 L 2.453125 -0.3125 L 3.671875 -4.0625 L 7.578125 -4.0625 L 8.84375 -0.3125 L 6.84375 -0.3125 L 6.84375 0 L 12.53125 0 L 12.53125 -0.3125 L 10.84375 -0.3125 L 6.59375 -13.234375 L 6.359375 -13.234375 L 2.09375 -0.3125 Z M 5.625 -9.9375 L 7.484375 -4.375 L 3.796875 -4.375 Z M 5.625 -9.9375 "/></g></g></g><g fill="rgb(0%, 0%, 0%)" fill-opacity="1"><g transform="translate(189.871774, 47.420905)"><g/></g></g><g fill="rgb(0%, 0%, 0%)" fill-opacity="1"><g transform="translate(195.099902, 47.420905)"><g><path d="M 10.78125 -3.59375 C 10.675781 -3.101562 10.566406 -2.65625 10.453125 -2.25 C 10.335938 -1.851562 10.179688 -1.507812 9.984375 -1.21875 C 9.796875 -0.925781 9.550781 -0.703125 9.25 -0.546875 C 8.957031 -0.390625 8.582031 -0.3125 8.125 -0.3125 L 4.140625 -0.3125 L 4.140625 -12.75 L 5.984375 -12.75 L 5.984375 -13.0625 L 0.578125 -13.0625 L 0.578125 -12.75 L 2.25 -12.75 L 2.25 -0.3125 L 0.578125 -0.3125 L 0.578125 0 L 10.59375 0 C 10.96875 0 11.15625 -0.207031 11.15625 -0.625 L 11.15625 -3.53125 C 11.15625 -3.84375 11.101562 -4 11 -4 C 10.90625 -4 10.832031 -3.863281 10.78125 -3.59375 Z M 10.78125 -3.59375 "/></g></g></g><g fill="rgb(0%, 0%, 0%)" fill-opacity="1"><g transform="translate(206.741732, 47.420905)"><g><path d="M 5.65625 -13.0625 L 0.421875 -13.0625 L 0.421875 -12.75 L 2.09375 -12.75 L 2.09375 -3.25 C 2.09375 -2.5625 2.222656 -1.984375 2.484375 -1.515625 C 2.753906 -1.054688 3.097656 -0.6875 3.515625 -0.40625 C 3.941406 -0.125 4.414062 0.0703125 4.9375 0.1875 C 5.457031 0.3125 5.96875 0.375 6.46875 0.375 C 7.695312 0.375 8.65625 0.0703125 9.34375 -0.53125 C 10.03125 -1.132812 10.375 -2.039062 10.375 -3.25 L 10.375 -12.75 L 12.046875 -12.75 L 12.046875 -13.0625 L 8.390625 -13.0625 L 8.390625 -12.75 L 10.0625 -12.75 L 10.0625 -3.25 C 10.0625 -2.726562 9.976562 -2.265625 9.8125 -1.859375 C 9.65625 -1.453125 9.4375 -1.109375 9.15625 -0.828125 C 8.875 -0.546875 8.539062 -0.332031 8.15625 -0.1875 C 7.769531 -0.0507812 7.359375 0.015625 6.921875 0.015625 C 6.015625 0.015625 5.296875 -0.265625 4.765625 -0.828125 C 4.242188 -1.390625 3.984375 -2.195312 3.984375 -3.25 L 3.984375 -12.75 L 5.65625 -12.75 Z M 5.65625 -13.0625 "/></g></g></g><g fill="rgb(0%, 0%, 0%)" fill-opacity="1"><g transform="translate(219.141542, 47.420905)"><g><path d="M 0.53125 -0.3125 L 0.53125 0 L 4.171875 0 L 4.171875 -0.3125 L 2.5 -0.3125 L 2.5 -12.1875 L 10.03125 0.15625 L 10.6875 0.15625 L 10.6875 -12.75 L 12.359375 -12.75 L 12.359375 -13.0625 L 8.703125 -13.0625 L 8.703125 -12.75 L 10.375 -12.75 L 10.375 -3.203125 L 4.359375 -13.0625 L 0.53125 -13.0625 L 0.53125 -12.75 L 2.203125 -12.75 L 2.203125 -0.3125 Z M 0.53125 -0.3125 "/></g></g></g><g fill="rgb(0%, 0%, 0%)" fill-opacity="1"><g transform="translate(231.910624, 47.420905)"><g><path d="M 0.421875 -0.3125 L 0.421875 0 L 4.75 0 L 4.75 -0.3125 L 2.453125 -0.3125 L 3.671875 -4.0625 L 7.578125 -4.0625 L 8.84375 -0.3125 L 6.84375 -0.3125 L 6.84375 0 L 12.53125 0 L 12.53125 -0.3125 L 10.84375 -0.3125 L 6.59375 -13.234375 L 6.359375 -13.234375 L 2.09375 -0.3125 Z M 5.625 -9.9375 L 7.484375 -4.375 L 3.796875 -4.375 Z M 5.625 -9.9375 "/></g></g></g></svg>